<?xml version="1.0" encoding="utf-8"?>
<!-- Generator: Adobe Illustrator 25.4.1, SVG Export Plug-In . SVG Version: 6.00 Build 0)  -->
<svg version="1.2" baseProfile="tiny" id="Layer_1" xmlns="http://www.w3.org/2000/svg" xmlns:xlink="http://www.w3.org/1999/xlink"
	 x="0px" y="0px" viewBox="0 0 293.8 293.7" overflow="visible" xml:space="preserve">
<path fill="none" d="M61.1,217.6c0,5.3-4,9.7-9.2,10.3c-5.8,0.7-10.7,1.2-14.6,1.5c-7.2,0.6-14.1-2.9-17.7-9.2
	C6.6,198-0.1,172.6,0,146.8C0,65.4,67.3-1.1,148.7,0c61.9,0.9,116.6,40.5,136.6,99c2.3,6.6,1.1,14-3.2,19.5
	c-14.5,18.9-32.7,34.6-50.8,47.6V77.6c0-6.9-5.6-12.5-12.5-12.5h-20.8c-6.9,0-12.5,5.6-12.5,12.5v107.6c0,4.2-2.5,7.9-6.4,9.6
	c-5.1,2.1-10.3,4.2-10.3,4.2v-90.3c0-6.9-5.6-12.5-12.5-12.5h-20.8c-6.9,0-12.5,5.6-12.5,12.5V206c0,4.8-3.3,9-8,10.1
	c-3.3,0.8-6.3,1.5-8.6,2.2v-78.4c0,0,0,0,0,0c0-6.9-5.6-12.5-12.5-12.5l-20.7-0.1c0,0,0,0-0.1,0c-6.9,0-12.4,5.6-12.4,12.5h0V217.6z
	 M293.4,136.8c-53.6,80-152.7,117.4-232.8,128.8c65.6,47.7,157.4,33.2,205.1-32.4c18.3-25.1,28.1-55.3,28.1-86.4
	C293.8,143.5,293.6,140.1,293.4,136.8z M60.6,265.6C60.6,265.6,60.6,265.6,60.6,265.6C60.6,265.6,60.6,265.6,60.6,265.6L60.6,265.6z
	"/>
</svg>
