<svg id="Layer_1" data-name="Layer 1" xmlns="http://www.w3.org/2000/svg" viewBox="0 0 841.89 595.28"><defs><style>.cls-1,.cls-2,.cls-3{fill:#90529c;}.cls-2{font-size:66.15px;}.cls-2,.cls-3{font-family:Poppins-Light, Poppins;font-weight:300;}.cls-3{font-size:29.11px;}</style></defs><path class="cls-1" d="M354.32,389.71H83.86V144L41.09,100.14C46.9,93.85,52.7,87.58,58.22,81.59l44.48,45.56H354.32Zm-26.16-37.8V154.21c-60.9-2.47-197.88-.61-197.88-.61S262.36,286,328.16,351.91ZM109.51,363.33c63.62,0,130.57,0,192.51-.05.45,0-181.86-181.31-181.86-181.31l-10.65-10.52Z"/><path class="cls-1" d="M431.53,315.6h9v43q0,11.22-2.32,17.81a21.34,21.34,0,0,1-8.38,10.73q-6,4.14-15.89,4.13-9.56,0-15.63-3.6a20,20,0,0,1-8.68-10.42Q387,370.4,387,358.57v-43h9v42.92q0,9.69,1.64,14.28a13.43,13.43,0,0,0,5.66,7.08,18.29,18.29,0,0,0,9.82,2.49q9.91,0,14.15-4.92t4.22-18.93Z"/><path class="cls-1" d="M413.94,393.14c-6.67,0-12.24-1.3-16.56-3.85a22,22,0,0,1-9.47-11.38c-1.81-4.75-2.73-11.25-2.73-19.34V313.71h12.71v44.81c0,6.21.52,10.79,1.53,13.63a11.48,11.48,0,0,0,4.88,6.11,16.68,16.68,0,0,0,8.86,2.21c6,0,10.32-1.44,12.75-4.28s3.76-8.85,3.76-17.67V313.71h12.71v44.86c0,7.66-.82,13.87-2.43,18.45a23.25,23.25,0,0,1-9.09,11.67C426.54,391.64,420.84,393.14,413.94,393.14ZM388.89,317.5v41.07c0,7.61.83,13.65,2.47,18a18,18,0,0,0,7.88,9.47c3.74,2.22,8.69,3.35,14.7,3.35,6.16,0,11.16-1.29,14.87-3.82a19.38,19.38,0,0,0,7.66-9.79c1.46-4.17,2.21-9.95,2.21-17.17V317.5h-5.3v41c0,9.91-1.53,16.51-4.68,20.18s-8.4,5.56-15.54,5.56a20.09,20.09,0,0,1-10.78-2.76,15.24,15.24,0,0,1-6.44-8c-1.18-3.3-1.76-8.19-1.76-14.94v-41Z"/><path class="cls-1" d="M457.33,390V315.6h13.54L487,368.26q2.23,7.37,3.25,11,1.15-4,3.62-11.92l16.28-51.75h12.11V390h-8.67V327.73L493.79,390h-8.12L466,326.66V390Z"/><path class="cls-1" d="M524.08,391.87H511.7V339.7l-16.56,52.17H484.32l-16.47-53v53H455.47V313.71h16.76l16.51,54c.55,1.83,1.06,3.49,1.5,5q.81-2.64,1.83-5.92l16.7-53.06h15.31Zm-8.67-3.79h5V317.5h-5Zm-28.38,0h5.42l22.4-70.58h-3.38L495.6,367.93c-1.63,5.2-2.84,9.2-3.6,11.87l-1.8,6.3-1.76-6.31c-.68-2.42-1.77-6.11-3.24-11L469.51,317.5H465.1Zm-27.85,0h5V317.5h-5Z"/><path class="cls-1" d="M538.47,390V315.6H564q7.8,0,12.5,2.26a16.62,16.62,0,0,1,7.38,6.95,19.58,19.58,0,0,1,2.67,9.82,18,18,0,0,1-2.37,9,17.52,17.52,0,0,1-7.14,6.8,17.66,17.66,0,0,1,9.48,6.74,19.25,19.25,0,0,1,3.32,11.26,23.34,23.34,0,0,1-2,9.72,18.55,18.55,0,0,1-5,6.92,19.89,19.89,0,0,1-7.44,3.68,41.51,41.51,0,0,1-11,1.25Zm9-43.13h14.71a29.93,29.93,0,0,0,8.58-.86,9.55,9.55,0,0,0,5.18-3.7,11.4,11.4,0,0,0,1.74-6.49,12.83,12.83,0,0,0-1.63-6.52,8.33,8.33,0,0,0-4.64-3.86q-3-1-10.34-1h-13.6Zm0,34.35h16.94a35.26,35.26,0,0,0,6.12-.36,13.84,13.84,0,0,0,5.2-2,10.45,10.45,0,0,0,3.43-4.13,13.91,13.91,0,0,0,1.35-6.27,13.15,13.15,0,0,0-2-7.22,10.39,10.39,0,0,0-5.41-4.32,31,31,0,0,0-9.95-1.24H547.47Z"/><path class="cls-1" d="M564.41,391.87H536.62V313.71H564c5.44,0,9.91.82,13.29,2.43a18.5,18.5,0,0,1,8.19,7.72,21.55,21.55,0,0,1,2.92,10.77,20.1,20.1,0,0,1-2.61,9.93,18.6,18.6,0,0,1-4.73,5.46,18.88,18.88,0,0,1,7,6,21.18,21.18,0,0,1,3.66,12.36,25.46,25.46,0,0,1-2.18,10.51,20.75,20.75,0,0,1-5.52,7.62,21.85,21.85,0,0,1-8.12,4A43.41,43.41,0,0,1,564.41,391.87Zm-24.09-3.79h24.09a40,40,0,0,0,10.48-1.18,18.23,18.23,0,0,0,6.78-3.33,17,17,0,0,0,4.46-6.23,21.57,21.57,0,0,0,1.85-8.93,17.39,17.39,0,0,0-3-10.16,15.82,15.82,0,0,0-8.53-6l-4.24-1.36,3.93-2.13a15.68,15.68,0,0,0,6.4-6.07,16.15,16.15,0,0,0,2.12-8,17.79,17.79,0,0,0-2.41-8.86,14.68,14.68,0,0,0-6.56-6.19c-2.88-1.38-6.82-2.08-11.72-2.08H540.32Zm24.09-5H545.62V353.73H563.2a32.09,32.09,0,0,1,10.56,1.35,12.31,12.31,0,0,1,6.35,5.07,15.17,15.17,0,0,1,2.25,8.26,15.87,15.87,0,0,1-1.55,7.13,12.36,12.36,0,0,1-4.06,4.86,15.79,15.79,0,0,1-5.87,2.31A36.92,36.92,0,0,1,564.41,383.1Zm-15.08-3.8h15.08a32.31,32.31,0,0,0,5.76-.32,12.09,12.09,0,0,0,4.53-1.75,8.58,8.58,0,0,0,2.81-3.41,12.08,12.08,0,0,0,1.14-5.41,11.22,11.22,0,0,0-1.65-6.19,8.56,8.56,0,0,0-4.46-3.56,29.47,29.47,0,0,0-9.34-1.13H549.33Zm12.85-30.55H545.62V322.48h15.45c5.13,0,8.71.38,10.93,1.14a10.21,10.21,0,0,1,5.65,4.69,14.77,14.77,0,0,1,1.88,7.49,13.34,13.34,0,0,1-2.07,7.57,11.37,11.37,0,0,1-6.14,4.43C569.4,348.44,566.41,348.75,562.18,348.75ZM549.33,345h12.85c4.71,0,7-.42,8-.77a7.75,7.75,0,0,0,4.22-3,9.51,9.51,0,0,0,1.41-5.41,11,11,0,0,0-1.36-5.56,6.53,6.53,0,0,0-3.64-3c-1.24-.43-4-.94-9.75-.94H549.33Z"/><path class="cls-1" d="M604.45,390V315.6H634.6c6.07,0,10.67.67,13.83,2a15.59,15.59,0,0,1,7.56,7.08,22.55,22.55,0,0,1,2.83,11.21,19.73,19.73,0,0,1-4.68,13.34q-4.7,5.43-14.48,6.9a23.16,23.16,0,0,1,5.43,3.7,50.6,50.6,0,0,1,7.47,9.89L664.39,390H653.07l-9-15.48q-3.95-6.69-6.5-10.24a21.38,21.38,0,0,0-4.57-5,13,13,0,0,0-4.1-2,24.43,24.43,0,0,0-5-.36H613.45v33Zm9-41.55h19.34a26.68,26.68,0,0,0,9.65-1.4,10.45,10.45,0,0,0,5.29-4.46,12.88,12.88,0,0,0,1.81-6.67,11.6,11.6,0,0,0-3.5-8.68c-2.34-2.26-6-3.4-11.07-3.4H613.45Z"/><path class="cls-1" d="M667.66,391.87H652l-9.54-16.4c-2.58-4.38-4.74-7.78-6.4-10.09a19.6,19.6,0,0,0-4.13-4.53,11.25,11.25,0,0,0-3.49-1.7,22.83,22.83,0,0,0-4.57-.3H615.3v33H602.59V313.71h32c6.37,0,11.12.7,14.54,2.14a17.5,17.5,0,0,1,8.46,7.89,24.66,24.66,0,0,1,3.07,12.16,21.67,21.67,0,0,1-5.15,14.6,22,22,0,0,1-10.87,6.5,17.5,17.5,0,0,1,1.72,1.47,52.42,52.42,0,0,1,7.77,10.28Zm-13.54-3.79h7L651,370.71a48.4,48.4,0,0,0-7.18-9.51,21.35,21.35,0,0,0-5-3.37l-5.14-2.71,5.72-.86c6.05-.91,10.55-3,13.36-6.28A17.68,17.68,0,0,0,657,335.9a20.75,20.75,0,0,0-2.59-10.27,13.6,13.6,0,0,0-6.66-6.27c-2.91-1.23-7.33-1.86-13.12-1.86H606.3v70.58h5.29v-33h12.3a26.21,26.21,0,0,1,5.42.4l.06,0a14.8,14.8,0,0,1,4.68,2.25,23,23,0,0,1,5,5.41c1.73,2.41,4,5.9,6.59,10.39Zm-21.33-37.75h-21.2V321.92H635c5.51,0,9.66,1.32,12.34,3.92a13.47,13.47,0,0,1,4.09,10.06,14.85,14.85,0,0,1-2.08,7.65,12.34,12.34,0,0,1-6.2,5.25A28.09,28.09,0,0,1,632.79,350.33Zm-17.49-3.8h17.49a25.1,25.1,0,0,0,9-1.27,8.57,8.57,0,0,0,4.38-3.67,11,11,0,0,0,1.54-5.69,9.67,9.67,0,0,0-2.92-7.3c-2-1.91-5.27-2.88-9.8-2.88H615.3Z"/><path class="cls-1" d="M676.55,390V315.6h9V390Z"/><path class="cls-1" d="M687.4,391.87H674.69V313.71H687.4Zm-9-3.79h5.29V317.5H678.4Z"/><path class="cls-1" d="M696,390l26.12-74.38h9.7L759.69,390H749.43l-7.93-22.53H713.06L705.59,390Zm19.63-30.54h23.06l-7.1-20.6q-3.25-9.39-4.83-15.42a100.42,100.42,0,0,1-3.66,14.2Z"/><path class="cls-1" d="M762.38,391.87H748.13l-7.93-22.52H714.39l-7.47,22.52H693.4l27.45-78.16h12.28Zm-11.64-3.79H757L730.58,317.5h-3.41l1.41,5.43c1,3.95,2.65,9.09,4.79,15.27l8,23.13H713.05L721.38,337A98.49,98.49,0,0,0,725,323.07l1-5.57h-2.52l-24.79,70.58h5.59l7.47-22.53H742.8Zm-32.47-30.54H736.1l-6.23-18.07c-1.07-3.11-2-6-2.83-8.54q-.94,3.68-2.16,7.31Z"/><path class="cls-1" d="M770.27,390v-10.4h9.51V390Z"/><path class="cls-1" d="M781.63,391.87H768.42V377.68h13.21Zm-9.51-3.79h5.81v-6.61h-5.81Z"/><text class="cls-2" transform="translate(75.56 463.65)">A new DeFi Innovation</text><text class="cls-3" transform="translate(488.32 516.31)">Powered by Polygon</text></svg>