<?xml version="1.0" standalone="no"?>
<!DOCTYPE svg PUBLIC "-//W3C//DTD SVG 20010904//EN"
 "http://www.w3.org/TR/2001/REC-SVG-20010904/DTD/svg10.dtd">
<svg version="1.0" xmlns="http://www.w3.org/2000/svg"
 width="2160.000000pt" height="2160.000000pt" viewBox="0 0 2160.000000 2160.000000"
 preserveAspectRatio="xMidYMid meet">
<metadata>
Created by potrace 1.14, written by Peter Selinger 2001-2017
</metadata>
<g transform="translate(0.000000,2160.000000) scale(0.100000,-0.100000)"
fill="#000000" stroke="none">
<path d="M17757 21470 c-20 -5 -55 -19 -77 -30 -25 -13 -237 -218 -550 -530
-391 -391 -516 -522 -537 -562 -23 -46 -27 -65 -27 -143 -1 -154 -20 -131 542
-692 l489 -491 -706 -706 -706 -706 -1434 1432 c-1614 1610 -1475 1483 -1636
1482 -151 0 -122 22 -698 -552 -435 -435 -512 -516 -538 -567 -50 -103 -44
-234 16 -326 13 -20 134 -147 269 -282 l246 -246 -3930 -3933 c-4888 -4891
-5223 -5228 -5288 -5308 -129 -162 -160 -203 -247 -335 -115 -174 -137 -213
-229 -400 -110 -222 -190 -432 -251 -660 -9 -33 -22 -82 -30 -110 -12 -45 -17
-72 -31 -155 -3 -14 -9 -47 -14 -75 -12 -58 -28 -185 -36 -270 -2 -33 -7 -82
-10 -110 -5 -55 -5 -381 0 -460 7 -100 17 -210 21 -225 2 -8 6 -46 10 -85 3
-38 8 -81 10 -95 2 -14 7 -56 10 -95 4 -38 8 -72 10 -75 1 -3 6 -45 10 -95 4
-49 8 -92 10 -95 1 -3 6 -37 9 -75 4 -39 8 -80 10 -90 2 -11 7 -54 10 -95 4
-41 9 -88 11 -105 5 -30 10 -73 21 -175 3 -30 7 -68 9 -85 2 -16 6 -57 10 -90
3 -33 8 -73 10 -90 6 -47 22 -191 30 -275 3 -30 7 -68 10 -85 2 -16 7 -57 10
-90 3 -33 7 -73 10 -90 2 -16 7 -57 10 -90 3 -33 8 -71 10 -85 2 -14 7 -56 10
-95 4 -38 8 -81 10 -94 3 -14 7 -54 10 -90 4 -36 8 -77 10 -91 6 -40 13 -100
20 -170 4 -36 8 -78 10 -95 2 -16 7 -59 11 -95 3 -36 9 -69 12 -74 3 -5 -560
-572 -1251 -1260 -1413 -1408 -1312 -1296 -1312 -1451 0 -71 4 -89 32 -146 28
-56 70 -102 310 -339 273 -270 279 -276 346 -299 53 -18 82 -23 130 -19 140
12 53 -68 1345 1222 646 644 1210 1208 1254 1252 91 93 66 87 278 59 19 -2 62
-7 95 -10 33 -3 98 -10 145 -16 117 -14 145 -17 225 -25 39 -3 77 -8 85 -9 8
-2 44 -6 80 -9 36 -4 81 -9 100 -11 19 -3 60 -7 90 -10 30 -3 71 -7 90 -10 19
-2 60 -7 90 -10 30 -3 89 -10 130 -15 41 -5 107 -12 145 -16 39 -3 77 -8 85
-9 8 -1 44 -6 80 -9 36 -4 81 -9 100 -11 46 -6 112 -13 175 -20 28 -2 66 -7
85 -9 19 -3 62 -8 95 -11 33 -4 71 -8 85 -10 14 -1 54 -6 90 -9 70 -7 124 -14
180 -21 34 -4 119 -13 190 -20 19 -2 82 -8 140 -15 58 -6 121 -13 140 -15 321
-34 758 -23 1015 26 28 6 67 12 89 15 29 5 222 51 281 68 6 2 24 6 40 11 17 4
50 14 75 22 25 8 50 16 55 17 6 2 17 6 25 9 8 3 42 15 75 26 33 12 69 25 80
30 11 5 61 26 110 46 322 133 679 356 960 599 44 38 2129 2117 4633 4620 2503
2503 4556 4551 4562 4551 5 0 126 -115 267 -255 297 -294 306 -300 448 -297
141 4 126 -8 703 565 563 559 558 553 567 684 4 68 -19 158 -55 207 -12 17
-663 673 -1447 1457 l-1425 1425 707 706 706 706 152 -151 c633 -632 837 -829
878 -850 43 -22 137 -41 176 -36 60 9 92 18 134 39 33 17 191 169 552 530 577
578 562 558 562 705 0 155 146 -3 -1740 1888 -1418 1421 -1693 1693 -1739
1715 -61 30 -167 42 -229 27z m-2282 -5990 c905 -904 1645 -1647 1645 -1650 0
-3 -2049 -2053 -4552 -4556 -3098 -3097 -4577 -4569 -4628 -4606 -308 -223
-618 -324 -990 -322 -131 0 -227 7 -390 29 -19 2 -82 9 -139 15 -57 6 -118 13
-135 15 -17 3 -60 7 -96 10 -36 4 -72 8 -80 10 -8 2 -49 7 -90 10 -41 3 -82 8
-90 10 -8 2 -49 7 -90 10 -41 3 -82 8 -90 10 -8 2 -45 7 -82 10 -37 3 -75 7
-85 9 -10 2 -54 7 -98 10 -44 4 -87 9 -95 11 -8 2 -45 6 -81 10 -36 3 -76 7
-90 10 -13 2 -53 6 -88 10 -36 3 -79 8 -95 10 -17 2 -60 7 -96 10 -36 4 -78 8
-95 10 -67 8 -114 14 -183 20 -39 4 -73 10 -73 14 -1 3 -3 15 -4 26 -5 45 -16
143 -20 180 -3 22 -11 99 -19 170 -8 72 -18 157 -21 190 -3 33 -8 71 -10 85
-2 14 -7 54 -10 90 -4 36 -9 83 -11 105 -3 22 -7 54 -8 70 -6 62 -19 171 -22
187 -1 9 -6 52 -9 95 -4 43 -9 87 -11 98 -2 11 -8 67 -14 125 -6 58 -12 116
-15 130 -2 14 -7 54 -10 90 -3 36 -8 76 -10 90 -2 14 -7 54 -10 90 -3 36 -8
76 -10 90 -2 14 -7 52 -10 85 -4 33 -8 72 -10 87 -18 144 -23 330 -10 426 3
23 8 63 11 90 3 26 9 63 14 82 5 19 11 48 14 64 12 69 72 230 128 344 104 212
175 300 512 640 165 166 305 302 310 302 6 0 279 -269 606 -597 327 -327 618
-613 646 -635 235 -178 588 -174 814 10 71 58 569 561 599 606 57 83 98 182
116 281 7 39 7 172 0 210 -21 112 -73 230 -133 305 -20 25 -306 315 -635 644
l-599 599 704 704 c386 386 706 702 711 700 4 -1 285 -279 625 -618 647 -646
663 -660 796 -707 211 -74 459 -38 633 94 56 43 582 574 614 621 116 168 148
397 84 590 -53 157 -29 129 -623 732 -128 130 -341 344 -473 477 l-239 240
707 707 707 708 616 -614 c338 -337 632 -626 653 -641 174 -127 453 -152 654
-61 103 48 173 108 464 401 273 276 288 293 327 374 68 138 89 267 69 418 -10
76 -58 194 -109 266 -23 34 -314 333 -649 668 l-607 607 706 705 c388 388 707
705 708 703 2 -1 744 -742 1649 -1647z"/>
</g>
</svg>
